<svg version="1.1" xmlns="http://www.w3.org/2000/svg" xmlns:xlink="http://www.w3.org/1999/xlink" style="display: none;">
	<symbol id="instagram" viewBox="0 0 94 94">
        <path d="M47 62.6667C51.1552 62.6667 55.14 61.0162 58.0779 58.0779C61.0162 55.14 62.6667 51.1552 62.6667 47C62.6667 42.8448 61.0162 38.8601 58.0779 35.922C55.14 32.9839 51.1552 31.3333 47 31.3333C42.8448 31.3333 38.8601 32.9839 35.922 35.922C32.984 38.8601 31.3334 42.8448 31.3334 47C31.3334 51.1552 32.984 55.14 35.922 58.0779C38.8601 61.0162 42.8448 62.6667 47 62.6667Z"  stroke-width="1.5" stroke-linecap="round" stroke-linejoin="round"/>
        <path d="M11.75 62.6667V31.3333C11.75 26.1395 13.8132 21.1584 17.4858 17.4858C21.1584 13.8132 26.1395 11.75 31.3333 11.75H62.6667C67.8606 11.75 72.8418 13.8132 76.514 17.4858C80.1867 21.1584 82.25 26.1395 82.25 31.3333V62.6667C82.25 67.8606 80.1867 72.8418 76.514 76.514C72.8418 80.1867 67.8606 82.25 62.6667 82.25H31.3333C26.1395 82.25 21.1584 80.1867 17.4858 76.514C13.8132 72.8418 11.75 67.8606 11.75 62.6667Z"  stroke-width="1.5"/>
        <path d="M68.5416 25.497L68.5804 25.4544"  stroke-width="1.5" stroke-linecap="round" stroke-linejoin="round"/>
	</symbol>
    
    <symbol id="telegram" viewBox="0 0 78 78">
        <path d="M61.144 24.2372L46.3813 62.9894L29.7732 46.3813L61.144 24.2372ZM61.144 24.2372L13.1652 40.8453L29.7732 46.3813L61.144 24.2372ZM61.144 24.2372L29.7732 46.3813L61.144 24.2372Z"  stroke-width="1.5" stroke-linecap="round" stroke-linejoin="round"/>
        <path d="M39 75.9068C59.3837 75.9068 75.9069 59.3837 75.9069 39C75.9069 18.6164 59.3837 2.09322 39 2.09322C18.6164 2.09322 2.09326 18.6164 2.09326 39C2.09326 59.3837 18.6164 75.9068 39 75.9068Z"  stroke-width="1.5" stroke-linecap="round" stroke-linejoin="round"/>
    </symbol>

    <symbol id="linkedin" viewBox="0 0 93 93">
        <path d="M27.125 65.875V38.75M81.375 31V62C81.375 67.1386 79.3337 72.0667 75.7002 75.7002C72.0667 79.3337 67.1386 81.375 62 81.375H31C25.8614 81.375 20.9333 79.3337 17.2998 75.7002C13.6663 72.0667 11.625 67.1386 11.625 62V31C11.625 25.8614 13.6663 20.9333 17.2998 17.2998C20.9333 13.6663 25.8614 11.625 31 11.625H62C67.1386 11.625 72.0667 13.6663 75.7002 17.2998C79.3337 20.9333 81.375 25.8614 81.375 31Z"  stroke-width="1.5" stroke-linecap="round" stroke-linejoin="round"/>
        <path d="M42.625 65.875V53.2813M42.625 53.2813V38.75M42.625 53.2813C42.625 38.75 65.875 38.75 65.875 53.2813V65.875M27.125 27.1637L27.1638 27.1211"  stroke-width="1.5" stroke-linecap="round" stroke-linejoin="round"/>
    </symbol>

    <symbol id="phone" viewBox="0 0 95 95">
        <path d="M66.1154 55.9473L53.1104 58.4674C44.3246 54.0587 38.8991 48.9932 35.741 41.098L38.1727 28.0551L33.5777 15.8333H21.7317C18.1694 15.8333 15.365 18.7767 15.8988 22.2979C17.2252 31.0869 21.1412 47.0257 32.5829 58.4674C44.5994 70.4839 61.9088 75.6979 71.4336 77.7727C75.1128 78.5717 78.3751 75.7042 78.3751 71.9366V60.6181L66.1154 55.9473Z"  stroke-width="1.5" stroke-linecap="round" stroke-linejoin="round"/>
    </symbol>
</svg>